<svg xmlns="http://www.w3.org/2000/svg" viewBox="0 0 85.04 85.04"><defs><style>.cls-1{fill:#87b953;}.cls-1,.cls-2{fill-rule:evenodd;}.cls-2{fill:#fff;}</style></defs><g id="Слой_2" data-name="Слой 2"><g id="Слой_1-2" data-name="Слой 1"><path class="cls-1" d="M42.52,0A42.52,42.52,0,1,0,85,42.52,42.52,42.52,0,0,0,42.52,0"/><path class="cls-2" d="M58.56,41.64c1.25-.29,2.82-2.59,2.82-4.28v-1a5.76,5.76,0,0,0-2.61-4.2,10.07,10.07,0,0,0-5.39-1.43h-.23a9.81,9.81,0,0,0-5.54,1.67A6.26,6.26,0,0,0,45,37v.68A5.22,5.22,0,0,0,46,40.19a4.83,4.83,0,0,0,.88.87c.23.2,1,.5,1,.64a5.7,5.7,0,0,0-2.49,1.9,6.73,6.73,0,0,0-1.23,3.17v1A6.23,6.23,0,0,0,47,52.72a11.38,11.38,0,0,0,6.12,1.6h.17a11.05,11.05,0,0,0,6.12-1.71,6.72,6.72,0,0,0,2.84-4.94v-.73a5.84,5.84,0,0,0-1.12-3.38A4.67,4.67,0,0,0,60,42.44c-.24-.18-1.39-.71-1.46-.8M50,37.41a2.78,2.78,0,0,1,2.87-2.47h.57a4,4,0,0,1,2.07.63,2.63,2.63,0,0,1,1,1.68v.67c0,1.38-1.89,2.31-3.44,2.31a3.87,3.87,0,0,1-2-.6c-.36-.28-1-.92-1-1.48Zm-.74,9.41c0-1.9,1.91-3.15,3.89-3.15h.68a3.43,3.43,0,0,1,3.38,3v.4c0,2-1.87,3.1-4,3.1H53.1c-2,0-3.84-1.08-3.84-3.05Z"/><path class="cls-2" d="M41.66,41.52v-.2c0-6.46-3.35-10.61-9.79-10.61h-.12a10.33,10.33,0,0,0-6.25,1.93,7.21,7.21,0,0,0-2.79,5.43v1.1a6.35,6.35,0,0,0,2.54,5,10.22,10.22,0,0,0,5.88,1.68h.43a20.93,20.93,0,0,0,4.69-.66,6.49,6.49,0,0,1-.72,2,5.22,5.22,0,0,1-1.26,1.53,6.33,6.33,0,0,1-4.2,1.35,12.82,12.82,0,0,1-1.93-.15c-.45-.08-1.43-.36-1.75-.36h-.12c-.4,0-.64,1.26-.74,1.65S25,52.84,25,53.14s.55.55.91.65a7.4,7.4,0,0,0,1.32.29,28,28,0,0,0,2.94.24h.27c7.34,0,11.2-5.41,11.2-12.8m-5.13-.4c-.55.05-1.47.37-2.15.48a14.68,14.68,0,0,1-2.39.23h-.75a3.2,3.2,0,0,1-3.48-3.29v-.08c0-2.33,1.72-3.52,4.07-3.52H32a4.7,4.7,0,0,1,4.5,4.89Z"/></g></g></svg>