<svg xmlns="http://www.w3.org/2000/svg" viewBox="0 0 85.04 85.04"><defs><style>.cls-1{fill:#1d1d1b;fill-rule:evenodd;}.cls-2{fill:#fff;}</style></defs><g id="Слой_2" data-name="Слой 2"><g id="Слой_1-2" data-name="Слой 1"><path class="cls-1" d="M42.52,0A42.52,42.52,0,1,0,85,42.52,42.52,42.52,0,0,0,42.52,0"/><path class="cls-2" d="M60.07,34.8H54.48V53.66c0,.54-.12.65-.75.65H50.42c-.49,0-.71-.15-.71-.65V34.8H44.25c-.44,0-.61-.16-.61-.63V31.45c0-.54.15-.66.61-.66H60.07c.51,0,.63.12.63.66v2.72c0,.47-.19.63-.63.63"/><path class="cls-2" d="M45,45.26v0H43.53L39.8,32.57a2.06,2.06,0,0,0-2-1.86H33.24c-1.22.06-1.75.32-2.17,1.86L27.35,45.24h-1.9v0a1.09,1.09,0,0,0-1.1,1.23l.73,7.2c.05.44.15.64.73.64h2.73a.55.55,0,0,0,.53-.67V49.42H41.18l-.07,4.24a.58.58,0,0,0,.56.67h3c.59,0,.69-.2.71-.64l.73-7.2A1.06,1.06,0,0,0,45,45.26m-13.16,0L33.05,41l1-4.73,0-.09H37l1,4.82L39,45.24Z"/></g></g></svg>