<svg xmlns="http://www.w3.org/2000/svg" viewBox="0 0 85.04 85.04"><defs><style>.cls-1{fill:#00519f;}.cls-1,.cls-2{fill-rule:evenodd;}.cls-2{fill:#fff;}</style></defs><g id="Слой_2" data-name="Слой 2"><g id="Слой_1-2" data-name="Слой 1"><path class="cls-1" d="M42.52,0A42.52,42.52,0,1,0,85,42.52,42.52,42.52,0,0,0,42.52,0"/><path class="cls-2" d="M45.17,34a9.22,9.22,0,0,0,1,1.64c.19.3.79,1.44,1.17,1.44S49.41,36,50,35.77a9.38,9.38,0,0,1,3.3-.7c1.47,0,3.33.64,3.33,2v.61c0,1.44-2.07,2.7-3,3.32-1.34.85-2.53,1.7-3.78,2.62-1.76,1.31-5.33,4.59-5.33,7.48,0,2.28.78,3.23,3.08,3.23H61.26c.36,0,.51-.31.51-.67V50.48c0-.21,0-.25-.21-.25H50.24c.25-1.06,2-2.73,2.73-3.42a23.43,23.43,0,0,1,3.67-2.53c2.31-1.45,5.23-3.41,5.23-7.11a6,6,0,0,0-2.12-4.69,9.15,9.15,0,0,0-5.1-1.77H52.7a13.56,13.56,0,0,0-4.33,1.05,12,12,0,0,0-1.78.93c-.42.26-1.42.72-1.42,1.3"/><path class="cls-2" d="M42.12,41.52v-.19c0-6.46-3.35-10.62-9.79-10.62h-.12A10.33,10.33,0,0,0,26,32.65a7.2,7.2,0,0,0-2.8,5.43v1.09a6.34,6.34,0,0,0,2.55,5,10.12,10.12,0,0,0,5.87,1.69H32a20.91,20.91,0,0,0,4.7-.67,6.4,6.4,0,0,1-.72,2,5.09,5.09,0,0,1-1.26,1.53,6.33,6.33,0,0,1-4.2,1.36A12.82,12.82,0,0,1,28.6,50c-.45-.08-1.43-.36-1.75-.36h-.12c-.4,0-.64,1.26-.74,1.65s-.51,1.61-.51,1.91.55.55.91.65a8.39,8.39,0,0,0,1.32.29c1,.08,1.8.24,2.93.24h.28c7.34,0,11.2-5.41,11.2-12.81M37,41.13c-.55,0-1.47.37-2.15.47a14.68,14.68,0,0,1-2.39.23H31.7a3.19,3.19,0,0,1-3.48-3.28v-.08c0-2.34,1.72-3.53,4.07-3.53h.19A4.71,4.71,0,0,1,37,39.84Z"/></g></g></svg>