<svg xmlns="http://www.w3.org/2000/svg" viewBox="0 0 85.04 85.04"><defs><style>.cls-1{fill:#e52a1b;}.cls-1,.cls-2{fill-rule:evenodd;}.cls-2{fill:#fff;}</style></defs><g id="Слой_2" data-name="Слой 2"><g id="Слой_1-2" data-name="Слой 1"><path class="cls-1" d="M42.52,0A42.52,42.52,0,1,0,85,42.52,42.52,42.52,0,0,0,42.52,0"/><path class="cls-2" d="M41.56,41.52v-.19c0-6.46-3.34-10.62-9.79-10.62h-.11a10.31,10.31,0,0,0-6.25,1.94,7.17,7.17,0,0,0-2.8,5.43v1.09a6.31,6.31,0,0,0,2.55,5A10.09,10.09,0,0,0,31,45.87h.43a21,21,0,0,0,4.7-.67,6.41,6.41,0,0,1-.73,2,5.06,5.06,0,0,1-1.25,1.53A6.36,6.36,0,0,1,30,50.1,12.92,12.92,0,0,1,28,50c-.45-.08-1.42-.36-1.75-.36h-.12c-.4,0-.64,1.26-.73,1.65a17.91,17.91,0,0,0-.52,1.91c0,.44.55.55.92.65a8.52,8.52,0,0,0,1.31.29c1,.08,1.81.24,2.94.24h.27c7.35,0,11.2-5.41,11.2-12.81m-5.13-.39c-.55,0-1.47.37-2.15.47a14.47,14.47,0,0,1-2.39.23h-.74a3.2,3.2,0,0,1-3.49-3.28v-.08c0-2.34,1.73-3.53,4.07-3.53h.2a4.7,4.7,0,0,1,4.5,4.9Z"/><path class="cls-2" d="M60.32,34.94c.36,0,.5-.41.5-.78V31.54c0-.46-.08-.83-.55-.83H47.77a2.2,2.2,0,0,0-2.12,1.61,18.59,18.59,0,0,0-.41,3.26c-.12,1.08-.23,2.24-.37,3.36a33.62,33.62,0,0,0-.32,3.35,1.51,1.51,0,0,0,1.12,1.54,9.4,9.4,0,0,0,2.15.53,7.53,7.53,0,0,0,2.7-.88,8,8,0,0,1,3-.55h.09c2.28,0,4,1.48,3.57,3.94-.34,2-2.32,3-4.62,3h-.1A10.53,10.53,0,0,1,49,49.25a6.83,6.83,0,0,1-1.42-.65,5.49,5.49,0,0,0-1.32-.71c-.46,0-1.08,1.24-1.33,1.61a9.66,9.66,0,0,0-1.06,1.84c0,.65,2.87,2,3.59,2.25a17.1,17.1,0,0,0,5,.74H53c5.13,0,9.42-3,9.42-8v-.65a7,7,0,0,0-1.33-3.77,6.88,6.88,0,0,0-2.87-2.23A10.39,10.39,0,0,0,54,38.8a17.2,17.2,0,0,0-4.5.6L50,35.08v-.14Z"/></g></g></svg>