<svg xmlns="http://www.w3.org/2000/svg" viewBox="0 0 103.4 78.89"><defs><style>.cls-1{fill:#69b431;}.cls-2{fill:#f3f6f7;}.cls-3{fill:#f5af07;}.cls-4{fill:#575756;}</style></defs><g id="Слой_2" data-name="Слой 2"><g id="Слой_1-2" data-name="Слой 1"><path class="cls-1" d="M83.32,37.5a3.12,3.12,0,0,1-2.8,3.35H24.21a3.12,3.12,0,0,1-2.8-3.35V3.35A3.12,3.12,0,0,1,24.21,0H80.52a3.12,3.12,0,0,1,2.8,3.35V37.5Z"/><path class="cls-2" d="M80,14.08a1.82,1.82,0,0,1-1.78,1.84H25.69a1.81,1.81,0,0,1-1.77-1.84V6.86A1.81,1.81,0,0,1,25.69,5H78.22A1.82,1.82,0,0,1,80,6.86v7.22Z"/><path class="cls-2" d="M80.65,21.1a1.22,1.22,0,0,1-1.19,1.23H25.1a1.21,1.21,0,0,1-1.18-1.23v-.32a1.2,1.2,0,0,1,1.18-1.22H79.46a1.21,1.21,0,0,1,1.19,1.22v.32Z"/><path class="cls-2" d="M52.44,27.21a.3.3,0,0,1-.29.31H24.21a.3.3,0,0,1-.29-.31v-.77a.3.3,0,0,1,.29-.31H52.15a.3.3,0,0,1,.29.31v.77Z"/><path class="cls-2" d="M80.65,33.11a3,3,0,0,1-3,3.06H70.22a3,3,0,0,1-3-3.06V30.58a3,3,0,0,1,3-3.06h7.47a3,3,0,0,1,3,3.06v2.53Z"/><path class="cls-1" d="M68.9,54.79a3.21,3.21,0,0,1-1.78,4l-54,16.52A3,3,0,0,1,9.52,73L.15,40.22a3.19,3.19,0,0,1,1.77-4l54-16.53a3.05,3.05,0,0,1,3.61,2.39L68.9,54.79Z"/><path class="cls-2" d="M59.28,33.32a1.85,1.85,0,0,1-1.2,2.28L7.71,51A1.78,1.78,0,0,1,5.5,49.78l-2-6.92a1.87,1.87,0,0,1,1.2-2.29L55.09,25.15a1.78,1.78,0,0,1,2.21,1.24l2,6.93Z"/><path class="cls-2" d="M61.83,39.86a1.24,1.24,0,0,1-.8,1.52L8.9,57.34a1.18,1.18,0,0,1-1.47-.83l-.09-.31a1.24,1.24,0,0,1,.8-1.52l52.13-16a1.19,1.19,0,0,1,1.47.83l.09.31Z"/><path class="cls-2" d="M36.46,54a.29.29,0,0,1-.2.37L9.48,62.57a.29.29,0,0,1-.37-.2l-.21-.74a.3.3,0,0,1,.2-.38l26.78-8.2a.29.29,0,0,1,.37.2l.21.75Z"/><path class="cls-2" d="M65.12,51.37a3.08,3.08,0,0,1-2,3.81L56,57.37a3,3,0,0,1-3.68-2.07l-.7-2.42a3.1,3.1,0,0,1,2-3.81l7.16-2.19A3,3,0,0,1,64.43,49l.69,2.42Z"/><path class="cls-3" d="M103.4,63.8A14.59,14.59,0,1,1,88.82,49.21,14.58,14.58,0,0,1,103.4,63.8Z"/><path class="cls-4" d="M94.41,60.3c0,3-3,4.47-5.9,6.53h6.06v3.4H83.09v-1A4.69,4.69,0,0,1,85,65.68c3.15-2.8,5.4-3.93,5.4-5.24,0-.77-.5-1.47-1.73-1.47a1.8,1.8,0,0,0-2,1.89v.41H83.15a3.62,3.62,0,0,1,0-.45c0-2.84,2-4.69,5.94-4.69,3.29,0,5.34,1.65,5.34,4.17Z"/><path class="cls-3" d="M80,43A11.72,11.72,0,1,1,68.28,31.33,11.71,11.71,0,0,1,80,43Z"/><path class="cls-4" d="M74.07,46.28v2.93H64.18V46.28h3.11V40.36H64.18V38.15a13.15,13.15,0,0,0,5.62-2.06h1.28V46.28Z"/><path class="cls-3" d="M68.63,66.82A12.06,12.06,0,1,1,56.57,54.76,12.06,12.06,0,0,1,68.63,66.82Z"/><path class="cls-4" d="M51.28,65.11l-.1,1.31A3,3,0,0,1,53,65.85a2.76,2.76,0,0,1,3,3c0,1.65-1.37,3-3.55,3-2.52,0-3.83-1.18-3.83-2.94h2.22a1.34,1.34,0,0,0,2.68-.08,1.23,1.23,0,0,0-1.32-1.3,1.3,1.3,0,0,0-1.21.63l-2-.27L49.4,63h6v2.14Z"/><path class="cls-4" d="M59.56,66.67v1.25c0,1.52.33,2.16,1.21,2.16S62,69.44,62,67.92V66.67c0-1.52-.3-2.15-1.18-2.15s-1.21.63-1.21,2.15Zm4.89.63c0,2.68-.81,4.48-3.68,4.48S57.08,70,57.08,67.3s.82-4.48,3.69-4.48,3.68,1.8,3.68,4.48Z"/></g></g></svg>