<svg xmlns="http://www.w3.org/2000/svg" viewBox="0 0 91.14 91.14"><defs><style>.cls-1{fill:#f1f1f1;}.cls-2{fill:#4e4d4d;}.cls-3{fill:#cccccb;}</style></defs><g id="Слой_2" data-name="Слой 2"><g id="Слой_1-2" data-name="Слой 1"><path class="cls-1" d="M45.53,91.13H.35c-.29,0-.35-.07-.35-.35Q0,45.57,0,.35C0,.06.06,0,.35,0H90.79c.28,0,.35.06.35.35q0,45.22,0,90.44c0,.28-.07.35-.35.35Zm36.53-44.5.42,0a3.44,3.44,0,0,0,.45,0,4.22,4.22,0,0,0,3.46-3.37,4.14,4.14,0,0,0-1.77-4.51L48.12,12.59a4.35,4.35,0,0,0-1.69-.74,4.55,4.55,0,0,0-3.68.87L13.29,33.78,6.5,38.63a4.37,4.37,0,1,0,5.08,7.11l33.63-24a.47.47,0,0,1,.65,0c2.86,2.06,5.73,4.1,8.6,6.15l25,17.88A4.49,4.49,0,0,0,82.06,46.63ZM45.51,79.3H68.88a4.35,4.35,0,0,0,4.55-4.55c0-1.91,0-3.82,0-5.73,0-5,0-10.09,0-15.13A4.37,4.37,0,1,0,64.7,54q0,8.1,0,16.19c0,.35-.08.44-.43.44q-18.73,0-37.47,0c-.35,0-.44-.08-.44-.43q0-8,0-16c0-.22,0-.43,0-.65a4.36,4.36,0,0,0-6.27-3.62,4.21,4.21,0,0,0-2.45,4q0,10.45,0,20.9a4.34,4.34,0,0,0,4.52,4.48Z"/><path class="cls-2" d="M82.06,46.63a4.49,4.49,0,0,1-2.57-.89l-25-17.88c-2.87-2.05-5.74-4.09-8.6-6.15a.47.47,0,0,0-.65,0l-33.63,24A4.37,4.37,0,1,1,6.5,38.63l6.79-4.85L42.75,12.72a4.55,4.55,0,0,1,3.68-.87,4.35,4.35,0,0,1,1.69.74l36.5,26.09a4.14,4.14,0,0,1,1.77,4.51,4.22,4.22,0,0,1-3.46,3.37,3.44,3.44,0,0,1-.45,0Z"/><path class="cls-2" d="M45.51,79.3H22.15a4.34,4.34,0,0,1-4.52-4.48q0-10.45,0-20.9a4.37,4.37,0,0,1,7.05-3.53,4.14,4.14,0,0,1,1.67,3.14c0,.22,0,.43,0,.65q0,8,0,16c0,.35.09.43.44.43q18.73,0,37.47,0c.35,0,.43-.09.43-.44q0-8.09,0-16.19a4.37,4.37,0,1,1,8.73-.06c0,5,0,10.08,0,15.13,0,1.91,0,3.82,0,5.73a4.35,4.35,0,0,1-4.55,4.55Z"/><circle class="cls-3" cx="45.53" cy="49.42" r="17.06"/></g></g></svg>