<svg xmlns="http://www.w3.org/2000/svg" viewBox="0 0 88.09 139.45"><defs><style>.cls-1{fill:#4e4d4d;}.cls-2{fill:#fff;}.cls-3{fill:#fefefe;}.cls-4{fill:#6ab42e;}</style></defs><g id="Слой_2" data-name="Слой 2"><g id="Слой_1-2" data-name="Слой 1"><path class="cls-1" d="M81.32,126.43a4.71,4.71,0,0,1-3.5-1.34c-2.5-2.54-2.42-8.4-2.26-19,0-2.93.09-6.19.09-9.83,0-8.84-.65-14.39-2-16.94-1-1.9-2.12-1.94-4.13-1.9l-.1-1.11.1-1.09c2.1,0,4.46,0,6.07,3.08s2.24,8.49,2.24,18c0,3.65,0,6.93-.09,9.86-.13,9.38-.23,15.57,1.63,17.46a2.6,2.6,0,0,0,1.94.69c.05,0,.2,0,.45-.25,3.61-3.65,3.39-29.16,3.26-44.4,0-3.06,0-5.92,0-8.43h2.2c0,2.51,0,5.36,0,8.41.19,22.8,0,42-3.9,46A2.83,2.83,0,0,1,81.32,126.43Z"/><rect class="cls-1" x="70.71" y="26.72" width="5.86" height="19.33" transform="translate(-4.35 62.17) rotate(-44.59)"/><path class="cls-1" d="M69.43,128.47c0,6.06-4.66,11-10.41,11H10.41c-5.75,0-10.41-4.92-10.41-11V11C0,4.92,4.66,0,10.41,0H59c5.75,0,10.41,4.92,10.41,11Z"/><rect class="cls-2" x="3.26" y="4.94" width="63.21" height="40.05" rx="7.51"/><polygon class="cls-1" points="88.09 73.41 70.34 73.41 70.34 58.95 73.63 58.95 73.63 70.11 84.8 70.11 84.8 53.44 77.88 43.76 80.55 41.84 88.09 52.38 88.09 73.41"/><path class="cls-3" d="M34.88,121.65A28.45,28.45,0,1,1,63.33,93.11,28.45,28.45,0,0,1,34.88,121.65Z"/><path class="cls-4" d="M32.2,116.69c-7.11,0-14.13-6.93-13.92-15.1.09-3.48,1.76-6.5,3.39-9.47A113.73,113.73,0,0,1,32.53,76.59c.55-.7.9-.76,1.45-.06,4.69,6,9.32,12,12.61,18.93,2.88,6.08,2,11.55-2.4,16.47C41.33,115.14,37.59,116.57,32.2,116.69Z"/><path class="cls-4" d="M53.94,87.05a10.26,10.26,0,0,1-4.36,7.63c-.57.39-.84.33-1-.33-1.84-5.95-5.31-11-8.94-15.93-.92-1.25-1.1-2.13-.05-3.36,1.27-1.48,2.35-3.13,3.54-4.68.4-.52.81-1.06,1.47-.21,3.22,4.19,6.54,8.31,8.55,13.29A12.78,12.78,0,0,1,53.94,87.05Z"/></g></g></svg>